<?xml version='1.0' encoding='utf-8'?>
<!DOCTYPE score-partwise PUBLIC "-//Recordare//DTD MusicXML 3.0 Partwise//EN" "http://www.musicxml.org/dtds/partwise.dtd">
<score-partwise>
  <work>
    <work-title>Jock O'Hazeldean 30305</work-title>
  </work>
  <identification>
    <encoding>
      <encoder>abc2xml version 233</encoder>
      <supports attribute="new-system" element="print" type="yes" value="yes" />
      <encoding-date>2022-12-08</encoding-date>
    </encoding>
    <source>thesession.org</source>
    <miscellaneous>
      <miscellaneous-field name="notes">tune id: 11188; setting id: 30305</miscellaneous-field>
      <miscellaneous-field name="rhythm">waltz</miscellaneous-field>
      <miscellaneous-field name="transcription">Zachary H</miscellaneous-field>
    </miscellaneous>
  </identification>
  <part-list>
    <score-part id="P1">
      <part-name />
    </score-part>
  </part-list>
  <part id="P1">
    <measure number="1">
      <attributes>
        <divisions>2520</divisions>
        <key>
          <fifths>1</fifths>
          <mode>major</mode>
        </key>
        <time>
          <beats>3</beats>
          <beat-type>4</beat-type>
        </time>
      </attributes>
      <note>
        <pitch>
          <step>G</step>
          <octave>5</octave>
        </pitch>
        <duration>2520</duration>
        <voice>1</voice>
        <type>quarter</type>
        <lyric number="1">
          <syllabic>single</syllabic>
          <text>1. Why</text>
        </lyric>
        <lyric number="2">
          <syllabic>single</syllabic>
          <text>2. Now</text>
        </lyric>
        <lyric number="3">
          <syllabic>single</syllabic>
          <text>3. A</text>
        </lyric>
        <lyric number="4">
          <syllabic>single</syllabic>
          <text>4. The</text>
        </lyric>
      </note>
    </measure>
    <measure number="2">
      <harmony>
        <root>
          <root-step>G</root-step>
        </root>
        <kind>major</kind>
      </harmony>
      <note>
        <pitch>
          <step>D</step>
          <octave>5</octave>
        </pitch>
        <duration>5040</duration>
        <voice>1</voice>
        <type>half</type>
        <lyric number="1">
          <syllabic>single</syllabic>
          <text>weep</text>
        </lyric>
        <lyric number="2">
          <syllabic>single</syllabic>
          <text>let</text>
        </lyric>
        <lyric number="3">
          <syllabic>single</syllabic>
          <text>chain</text>
        </lyric>
        <lyric number="4">
          <syllabic>single</syllabic>
          <text>kirk</text>
        </lyric>
      </note>
      <note>
        <pitch>
          <step>B</step>
          <octave>4</octave>
        </pitch>
        <duration>2520</duration>
        <voice>1</voice>
        <type>quarter</type>
        <lyric number="1">
          <syllabic>single</syllabic>
          <text>ye</text>
        </lyric>
        <lyric number="2">
          <syllabic>single</syllabic>
          <text>this</text>
        </lyric>
        <lyric number="3">
          <syllabic>single</syllabic>
          <text>of</text>
        </lyric>
        <lyric number="4">
          <syllabic>single</syllabic>
          <text>was</text>
        </lyric>
      </note>
    </measure>
    <measure number="3">
      <harmony>
        <root>
          <root-step>D</root-step>
        </root>
        <kind>major</kind>
        <bass>
          <bass-step>F</bass-step>
          <bass-alter>1</bass-alter>
        </bass>
      </harmony>
      <note>
        <pitch>
          <step>A</step>
          <octave>4</octave>
        </pitch>
        <duration>5040</duration>
        <voice>1</voice>
        <type>half</type>
        <lyric number="1">
          <syllabic>single</syllabic>
          <text>by</text>
        </lyric>
        <lyric number="2">
          <syllabic>begin</syllabic>
          <text>will</text>
        </lyric>
        <lyric number="3">
          <syllabic>single</syllabic>
          <text>gowd</text>
        </lyric>
        <lyric number="4">
          <syllabic>single</syllabic>
          <text>deckt</text>
        </lyric>
      </note>
      <note>
        <pitch>
          <step>G</step>
          <octave>4</octave>
        </pitch>
        <duration>2520</duration>
        <voice>1</voice>
        <type>quarter</type>
        <lyric number="1">
          <syllabic>single</syllabic>
          <text>the</text>
        </lyric>
        <lyric number="2">
          <syllabic>end</syllabic>
          <text>fu</text>
        </lyric>
        <lyric number="3">
          <syllabic>single</syllabic>
          <text>ye</text>
        </lyric>
        <lyric number="4">
          <syllabic>single</syllabic>
          <text>at</text>
        </lyric>
      </note>
    </measure>
    <measure number="4">
      <harmony>
        <root>
          <root-step>E</root-step>
        </root>
        <kind>minor</kind>
      </harmony>
      <note>
        <pitch>
          <step>G</step>
          <octave>4</octave>
        </pitch>
        <duration>2520</duration>
        <voice>1</voice>
        <type>quarter</type>
        <lyric number="1">
          <syllabic>single</syllabic>
          <text>tide,</text>
        </lyric>
        <lyric number="2">
          <syllabic>single</syllabic>
          <text>greif</text>
        </lyric>
        <lyric number="3">
          <syllabic>begin</syllabic>
          <text>sall</text>
        </lyric>
        <lyric number="4">
          <syllabic>begin</syllabic>
          <text>mor</text>
        </lyric>
      </note>
      <note>
        <pitch>
          <step>B</step>
          <octave>4</octave>
        </pitch>
        <duration>5040</duration>
        <voice>1</voice>
        <type>half</type>
        <lyric number="1">
          <syllabic>begin</syllabic>
          <text>la</text>
        </lyric>
        <lyric number="2">
          <syllabic>single</syllabic>
          <text>be</text>
        </lyric>
        <lyric number="3">
          <syllabic>end</syllabic>
          <text>nae</text>
        </lyric>
        <lyric number="4">
          <syllabic>end</syllabic>
          <text>nin</text>
        </lyric>
      </note>
    </measure>
    <measure number="5">
      <harmony>
        <root>
          <root-step>G</root-step>
        </root>
        <kind>major</kind>
        <bass>
          <bass-step>D</bass-step>
        </bass>
      </harmony>
      <note>
        <pitch>
          <step>D</step>
          <octave>4</octave>
        </pitch>
        <duration>5040</duration>
        <voice>1</voice>
        <type>half</type>
        <lyric number="1">
          <syllabic>end</syllabic>
          <text>dy,</text>
        </lyric>
        <lyric number="2">
          <syllabic>single</syllabic>
          <text>dune,</text>
        </lyric>
        <lyric number="3">
          <syllabic>single</syllabic>
          <text>lack,</text>
        </lyric>
        <lyric number="4">
          <syllabic>single</syllabic>
          <text>tide,</text>
        </lyric>
      </note>
      <note>
        <pitch>
          <step>E</step>
          <octave>4</octave>
        </pitch>
        <duration>2520</duration>
        <voice>1</voice>
        <type>quarter</type>
        <lyric number="1">
          <syllabic>single</syllabic>
          <text>why</text>
        </lyric>
        <lyric number="2">
          <syllabic>single</syllabic>
          <text>an</text>
        </lyric>
        <lyric number="3">
          <syllabic>single</syllabic>
          <text>nor</text>
        </lyric>
        <lyric number="4">
          <syllabic>single</syllabic>
          <text>the</text>
        </lyric>
      </note>
    </measure>
    <measure number="6">
      <harmony>
        <root>
          <root-step>C</root-step>
        </root>
        <kind>major</kind>
      </harmony>
      <note>
        <pitch>
          <step>G</step>
          <octave>4</octave>
        </pitch>
        <duration>5040</duration>
        <voice>1</voice>
        <type>half</type>
        <lyric number="1">
          <syllabic>single</syllabic>
          <text>weep</text>
        </lyric>
        <lyric number="2">
          <syllabic>single</syllabic>
          <text>dry</text>
        </lyric>
        <lyric number="3">
          <syllabic>single</syllabic>
          <text>braid</text>
        </lyric>
        <lyric number="4">
          <syllabic>begin</syllabic>
          <text>ta</text>
        </lyric>
      </note>
      <note>
        <pitch>
          <step>G</step>
          <octave>4</octave>
        </pitch>
        <duration>2520</duration>
        <voice>1</voice>
        <type>quarter</type>
        <lyric number="1">
          <syllabic>single</syllabic>
          <text>ye</text>
        </lyric>
        <lyric number="2">
          <syllabic>single</syllabic>
          <text>those</text>
        </lyric>
        <lyric number="3">
          <syllabic>single</syllabic>
          <text>tae</text>
        </lyric>
        <lyric number="4">
          <syllabic>end</syllabic>
          <text>per</text>
        </lyric>
      </note>
    </measure>
    <measure number="7">
      <note>
        <pitch>
          <step>C</step>
          <octave>5</octave>
        </pitch>
        <duration>5040</duration>
        <voice>1</voice>
        <type>half</type>
        <lyric number="1">
          <syllabic>single</syllabic>
          <text>by</text>
        </lyric>
        <lyric number="2">
          <syllabic>single</syllabic>
          <text>cheeks</text>
        </lyric>
        <lyric number="3">
          <syllabic>single</syllabic>
          <text>bind</text>
        </lyric>
        <lyric number="4">
          <syllabic>begin</syllabic>
          <text>glim</text>
        </lyric>
      </note>
      <note>
        <pitch>
          <step>B</step>
          <octave>4</octave>
        </pitch>
        <duration>2520</duration>
        <voice>1</voice>
        <type>quarter</type>
        <lyric number="1">
          <syllabic>single</syllabic>
          <text>the</text>
        </lyric>
        <lyric number="2">
          <syllabic>single</syllabic>
          <text>sae</text>
        </lyric>
        <lyric number="3">
          <syllabic>single</syllabic>
          <text>your</text>
        </lyric>
        <lyric number="4">
          <syllabic>end</syllabic>
          <text>meret</text>
        </lyric>
      </note>
    </measure>
    <measure number="8">
      <harmony>
        <root>
          <root-step>D</root-step>
        </root>
        <kind>major</kind>
      </harmony>
      <note>
        <pitch>
          <step>A</step>
          <octave>4</octave>
        </pitch>
        <duration>7560</duration>
        <voice>1</voice>
        <type>half</type>
        <dot />
        <notations>
          <slur number="1" type="start" />
        </notations>
        <lyric number="1">
          <syllabic>begin</syllabic>
          <text>tide?</text>
        </lyric>
        <lyric number="2">
          <syllabic>begin</syllabic>
          <text>pale.</text>
        </lyric>
        <lyric number="3">
          <syllabic>begin</syllabic>
          <text>hair,</text>
        </lyric>
        <lyric number="4">
          <syllabic>begin</syllabic>
          <text>fair.</text>
        </lyric>
      </note>
    </measure>
    <measure number="9">
      <harmony>
        <root>
          <root-step>D</root-step>
        </root>
        <kind>dominant</kind>
      </harmony>
      <note>
        <pitch>
          <step>A</step>
          <octave>4</octave>
        </pitch>
        <duration>5040</duration>
        <voice>1</voice>
        <type>half</type>
        <notations>
          <slur number="1" type="stop" />
        </notations>
      </note>
      <note>
        <pitch>
          <step>G</step>
          <octave>5</octave>
        </pitch>
        <duration>2520</duration>
        <voice>1</voice>
        <type>quarter</type>
        <lyric number="1">
          <syllabic>end</syllabic>
          <text>A'll</text>
        </lyric>
        <lyric number="2">
          <syllabic>end</syllabic>
          <text>young</text>
        </lyric>
        <lyric number="3">
          <syllabic>end</syllabic>
          <text>nor</text>
        </lyric>
        <lyric number="4">
          <syllabic>end</syllabic>
          <text>The</text>
        </lyric>
      </note>
    </measure>
    <measure number="10">
      <print new-system="yes" />
      <harmony>
        <root>
          <root-step>G</root-step>
        </root>
        <kind>major</kind>
      </harmony>
      <note>
        <pitch>
          <step>D</step>
          <octave>5</octave>
        </pitch>
        <duration>5040</duration>
        <voice>1</voice>
        <type>half</type>
        <lyric number="1">
          <syllabic>single</syllabic>
          <text>wad</text>
        </lyric>
        <lyric number="2">
          <syllabic>single</syllabic>
          <text>Frank</text>
        </lyric>
        <lyric number="3">
          <syllabic>begin</syllabic>
          <text>met</text>
        </lyric>
        <lyric number="4">
          <syllabic>single</syllabic>
          <text>priest</text>
        </lyric>
      </note>
      <note>
        <pitch>
          <step>B</step>
          <octave>4</octave>
        </pitch>
        <duration>2520</duration>
        <voice>1</voice>
        <type>quarter</type>
        <lyric number="1">
          <syllabic>single</syllabic>
          <text>ye</text>
        </lyric>
        <lyric number="2">
          <syllabic>single</syllabic>
          <text>is</text>
        </lyric>
        <lyric number="3">
          <syllabic>end</syllabic>
          <text>tled</text>
        </lyric>
        <lyric number="4">
          <syllabic>single</syllabic>
          <text>an</text>
        </lyric>
      </note>
    </measure>
    <measure number="11">
      <harmony>
        <root>
          <root-step>D</root-step>
        </root>
        <kind>major</kind>
        <bass>
          <bass-step>F</bass-step>
          <bass-alter>1</bass-alter>
        </bass>
      </harmony>
      <note>
        <pitch>
          <step>A</step>
          <octave>4</octave>
        </pitch>
        <duration>5040</duration>
        <voice>1</voice>
        <type>half</type>
        <lyric number="1">
          <syllabic>single</syllabic>
          <text>tae</text>
        </lyric>
        <lyric number="2">
          <syllabic>single</syllabic>
          <text>Chief</text>
        </lyric>
        <lyric number="3">
          <syllabic>single</syllabic>
          <text>hound,</text>
        </lyric>
        <lyric number="4">
          <syllabic>begin</syllabic>
          <text>bride</text>
        </lyric>
      </note>
      <note>
        <pitch>
          <step>G</step>
          <octave>4</octave>
        </pitch>
        <duration>2520</duration>
        <voice>1</voice>
        <type>quarter</type>
        <lyric number="1">
          <syllabic>single</syllabic>
          <text>my</text>
        </lyric>
        <lyric number="2">
          <syllabic>single</syllabic>
          <text>o</text>
        </lyric>
        <lyric number="3">
          <syllabic>single</syllabic>
          <text>nor</text>
        </lyric>
        <lyric number="4">
          <syllabic>end</syllabic>
          <text>groom</text>
        </lyric>
      </note>
    </measure>
    <measure number="12">
      <harmony>
        <root>
          <root-step>E</root-step>
        </root>
        <kind>minor</kind>
      </harmony>
      <note>
        <pitch>
          <step>G</step>
          <octave>4</octave>
        </pitch>
        <duration>2520</duration>
        <voice>1</voice>
        <type>quarter</type>
        <lyric number="1">
          <syllabic>begin</syllabic>
          <text>young</text>
        </lyric>
        <lyric number="2">
          <syllabic>begin</syllabic>
          <text>Er</text>
        </lyric>
        <lyric number="3">
          <syllabic>begin</syllabic>
          <text>man</text>
        </lyric>
        <lyric number="4">
          <syllabic>single</syllabic>
          <text>wait</text>
        </lyric>
      </note>
      <note>
        <pitch>
          <step>B</step>
          <octave>4</octave>
        </pitch>
        <duration>5040</duration>
        <voice>1</voice>
        <type>half</type>
        <lyric number="1">
          <syllabic>end</syllabic>
          <text>est</text>
        </lyric>
        <lyric number="2">
          <syllabic>middle</syllabic>
          <text>ring</text>
        </lyric>
        <lyric number="3">
          <syllabic>end</syllabic>
          <text>aged</text>
        </lyric>
        <lyric number="4">
          <syllabic>single</syllabic>
          <text>the</text>
        </lyric>
      </note>
    </measure>
    <measure number="13">
      <harmony>
        <root>
          <root-step>G</root-step>
        </root>
        <kind>major</kind>
        <bass>
          <bass-step>D</bass-step>
        </bass>
      </harmony>
      <note>
        <pitch>
          <step>D</step>
          <octave>4</octave>
        </pitch>
        <duration>5040</duration>
        <voice>1</voice>
        <type>half</type>
        <lyric number="1">
          <syllabic>single</syllabic>
          <text>son</text>
        </lyric>
        <lyric number="2">
          <syllabic>end</syllabic>
          <text>ton,</text>
        </lyric>
        <lyric number="3">
          <syllabic>single</syllabic>
          <text>hawk,</text>
        </lyric>
        <lyric number="4">
          <syllabic>single</syllabic>
          <text>bride,</text>
        </lyric>
      </note>
      <note>
        <pitch>
          <step>E</step>
          <octave>4</octave>
        </pitch>
        <duration>2520</duration>
        <voice>1</voice>
        <type>quarter</type>
        <lyric number="1">
          <syllabic>single</syllabic>
          <text>an</text>
        </lyric>
        <lyric number="2">
          <syllabic>single</syllabic>
          <text>an</text>
        </lyric>
        <lyric number="3">
          <syllabic>single</syllabic>
          <text>nor</text>
        </lyric>
        <lyric number="4">
          <syllabic>single</syllabic>
          <text>an</text>
        </lyric>
      </note>
    </measure>
    <measure number="14">
      <harmony>
        <root>
          <root-step>C</root-step>
        </root>
        <kind>major</kind>
      </harmony>
      <note>
        <pitch>
          <step>G</step>
          <octave>4</octave>
        </pitch>
        <duration>5040</duration>
        <voice>1</voice>
        <type>half</type>
        <lyric number="1">
          <syllabic>single</syllabic>
          <text>ye</text>
        </lyric>
        <lyric number="2">
          <syllabic>single</syllabic>
          <text>Lord</text>
        </lyric>
        <lyric number="3">
          <syllabic>begin</syllabic>
          <text>pal</text>
        </lyric>
        <lyric number="4">
          <syllabic>single</syllabic>
          <text>dame</text>
        </lyric>
      </note>
      <note>
        <pitch>
          <step>C</step>
          <octave>5</octave>
        </pitch>
        <duration>2520</duration>
        <voice>1</voice>
        <type>quarter</type>
        <lyric number="1">
          <syllabic>single</syllabic>
          <text>shall</text>
        </lyric>
        <lyric number="2">
          <syllabic>single</syllabic>
          <text>o</text>
        </lyric>
        <lyric number="3">
          <syllabic>end</syllabic>
          <text>frey</text>
        </lyric>
        <lyric number="4">
          <syllabic>single</syllabic>
          <text>an</text>
        </lyric>
      </note>
    </measure>
    <measure number="15">
      <harmony>
        <root>
          <root-step>D</root-step>
        </root>
        <kind>dominant</kind>
      </harmony>
      <note>
        <pitch>
          <step>A</step>
          <octave>4</octave>
        </pitch>
        <duration>5040</duration>
        <voice>1</voice>
        <type>half</type>
        <lyric number="1">
          <syllabic>single</syllabic>
          <text>be</text>
        </lyric>
        <lyric number="2">
          <syllabic>begin</syllabic>
          <text>Lang</text>
        </lyric>
        <lyric number="3">
          <syllabic>single</syllabic>
          <text>fresh</text>
        </lyric>
        <lyric number="4">
          <syllabic>single</syllabic>
          <text>night</text>
        </lyric>
      </note>
      <note>
        <pitch>
          <step>G</step>
          <octave>4</octave>
        </pitch>
        <duration>2520</duration>
        <voice>1</voice>
        <type>quarter</type>
        <lyric number="1">
          <syllabic>single</syllabic>
          <text>his</text>
        </lyric>
        <lyric number="2">
          <syllabic>middle</syllabic>
          <text>ley</text>
        </lyric>
        <lyric number="3">
          <syllabic>single</syllabic>
          <text>an</text>
        </lyric>
        <lyric number="4">
          <syllabic>single</syllabic>
          <text>were</text>
        </lyric>
      </note>
    </measure>
    <measure number="16">
      <harmony>
        <root>
          <root-step>G</root-step>
        </root>
        <kind>major</kind>
      </harmony>
      <note>
        <pitch>
          <step>G</step>
          <octave>4</octave>
        </pitch>
        <duration>7560</duration>
        <voice>1</voice>
        <type>half</type>
        <dot />
        <notations>
          <slur number="1" type="start" />
        </notations>
        <lyric number="1">
          <syllabic>single</syllabic>
          <text>bride.</text>
        </lyric>
        <lyric number="2">
          <syllabic>end</syllabic>
          <text>dale.</text>
        </lyric>
        <lyric number="3">
          <syllabic>single</syllabic>
          <text>fair.</text>
        </lyric>
        <lyric number="4">
          <syllabic>single</syllabic>
          <text>there.</text>
        </lyric>
      </note>
    </measure>
    <measure number="17">
      <note>
        <pitch>
          <step>G</step>
          <octave>4</octave>
        </pitch>
        <duration>5040</duration>
        <voice>1</voice>
        <type>half</type>
        <notations>
          <slur number="1" type="stop" />
        </notations>
      </note>
    </measure>
    <measure number="18">
      <print new-system="yes" />
      <note>
        <pitch>
          <step>B</step>
          <octave>4</octave>
        </pitch>
        <duration>2520</duration>
        <voice>1</voice>
        <type>quarter</type>
        <lyric number="1">
          <syllabic>single</syllabic>
          <text>An</text>
        </lyric>
        <lyric number="2">
          <syllabic>single</syllabic>
          <text>His</text>
        </lyric>
        <lyric number="3">
          <syllabic>single</syllabic>
          <text>An</text>
        </lyric>
        <lyric number="4">
          <syllabic>single</syllabic>
          <text>They</text>
        </lyric>
      </note>
    </measure>
    <measure number="19">
      <harmony>
        <root>
          <root-step>C</root-step>
        </root>
        <kind>major</kind>
      </harmony>
      <note>
        <pitch>
          <step>C</step>
          <octave>5</octave>
        </pitch>
        <duration>5040</duration>
        <voice>1</voice>
        <type>half</type>
        <lyric number="1">
          <syllabic>single</syllabic>
          <text>ye</text>
        </lyric>
        <lyric number="2">
          <syllabic>single</syllabic>
          <text>step</text>
        </lyric>
        <lyric number="3">
          <syllabic>single</syllabic>
          <text>you</text>
        </lyric>
        <lyric number="4">
          <syllabic>single</syllabic>
          <text>searcht</text>
        </lyric>
      </note>
      <note>
        <pitch>
          <step>B</step>
          <octave>4</octave>
        </pitch>
        <duration>2520</duration>
        <voice>1</voice>
        <type>quarter</type>
        <lyric number="1">
          <syllabic>single</syllabic>
          <text>shall</text>
        </lyric>
        <lyric number="2">
          <syllabic>single</syllabic>
          <text>is</text>
        </lyric>
        <lyric number="3">
          <syllabic>single</syllabic>
          <text>the</text>
        </lyric>
        <lyric number="4">
          <syllabic>single</syllabic>
          <text>for</text>
        </lyric>
      </note>
    </measure>
    <measure number="20">
      <note>
        <pitch>
          <step>C</step>
          <octave>5</octave>
        </pitch>
        <duration>5040</duration>
        <voice>1</voice>
        <type>half</type>
        <lyric number="1">
          <syllabic>single</syllabic>
          <text>be</text>
        </lyric>
        <lyric number="2">
          <syllabic>single</syllabic>
          <text>first</text>
        </lyric>
        <lyric number="3">
          <syllabic>begin</syllabic>
          <text>fore</text>
        </lyric>
        <lyric number="4">
          <syllabic>single</syllabic>
          <text>her</text>
        </lyric>
      </note>
      <note>
        <pitch>
          <step>D</step>
          <octave>5</octave>
        </pitch>
        <duration>2520</duration>
        <voice>1</voice>
        <type>quarter</type>
        <lyric number="1">
          <syllabic>single</syllabic>
          <text>his</text>
        </lyric>
        <lyric number="2">
          <syllabic>single</syllabic>
          <text>in</text>
        </lyric>
        <lyric number="3">
          <syllabic>end</syllabic>
          <text>maist</text>
        </lyric>
        <lyric number="4">
          <syllabic>single</syllabic>
          <text>in</text>
        </lyric>
      </note>
    </measure>
    <measure number="21">
      <note>
        <pitch>
          <step>E</step>
          <octave>5</octave>
        </pitch>
        <duration>5040</duration>
        <voice>1</voice>
        <type>half</type>
        <lyric number="1">
          <syllabic>single</syllabic>
          <text>bride</text>
        </lyric>
        <lyric number="2">
          <syllabic>begin</syllabic>
          <text>peace</text>
        </lyric>
        <lyric number="3">
          <syllabic>single</syllabic>
          <text>o</text>
        </lyric>
        <lyric number="4">
          <syllabic>single</syllabic>
          <text>bower</text>
        </lyric>
      </note>
      <note>
        <pitch>
          <step>D</step>
          <octave>5</octave>
        </pitch>
        <duration>2520</duration>
        <voice>1</voice>
        <type>quarter</type>
        <lyric number="1">
          <syllabic>begin</syllabic>
          <text>la</text>
        </lyric>
        <lyric number="2">
          <syllabic>end</syllabic>
          <text>fu</text>
        </lyric>
        <lyric number="3">
          <syllabic>single</syllabic>
          <text>them</text>
        </lyric>
        <lyric number="4">
          <syllabic>single</syllabic>
          <text>an</text>
        </lyric>
      </note>
    </measure>
    <measure number="22">
      <note>
        <pitch>
          <step>G</step>
          <octave>5</octave>
        </pitch>
        <duration>5040</duration>
        <voice>1</voice>
        <type>half</type>
        <lyric number="1">
          <syllabic>end</syllabic>
          <text>dy,</text>
        </lyric>
        <lyric number="2">
          <syllabic>single</syllabic>
          <text>haa,</text>
        </lyric>
        <lyric number="3">
          <syllabic>single</syllabic>
          <text>aa,</text>
        </lyric>
        <lyric number="4">
          <syllabic>single</syllabic>
          <text>haa,</text>
        </lyric>
      </note>
      <note>
        <pitch>
          <step>E</step>
          <octave>5</octave>
        </pitch>
        <duration>2520</duration>
        <voice>1</voice>
        <type>quarter</type>
        <lyric number="1">
          <syllabic>single</syllabic>
          <text>sae</text>
        </lyric>
        <lyric number="2">
          <syllabic>single</syllabic>
          <text>his</text>
        </lyric>
        <lyric number="3">
          <syllabic>single</syllabic>
          <text>sall</text>
        </lyric>
        <lyric number="4">
          <syllabic>single</syllabic>
          <text>the</text>
        </lyric>
      </note>
    </measure>
    <measure number="23">
      <harmony>
        <root>
          <root-step>G</root-step>
        </root>
        <kind>major</kind>
      </harmony>
      <note>
        <pitch>
          <step>D</step>
          <octave>5</octave>
        </pitch>
        <duration>5040</duration>
        <voice>1</voice>
        <type>half</type>
        <lyric number="1">
          <syllabic>begin</syllabic>
          <text>come</text>
        </lyric>
        <lyric number="2">
          <syllabic>single</syllabic>
          <text>sword</text>
        </lyric>
        <lyric number="3">
          <syllabic>single</syllabic>
          <text>ride</text>
        </lyric>
        <lyric number="4">
          <syllabic>begin</syllabic>
          <text>la</text>
        </lyric>
      </note>
      <note>
        <pitch>
          <step>B</step>
          <octave>4</octave>
        </pitch>
        <duration>2520</duration>
        <voice>1</voice>
        <type>quarter</type>
        <lyric number="1">
          <syllabic>end</syllabic>
          <text>ly</text>
        </lyric>
        <lyric number="2">
          <syllabic>single</syllabic>
          <text>in</text>
        </lyric>
        <lyric number="3">
          <syllabic>single</syllabic>
          <text>our</text>
        </lyric>
        <lyric number="4">
          <syllabic>end</syllabic>
          <text>dy</text>
        </lyric>
      </note>
    </measure>
    <measure number="24">
      <harmony>
        <root>
          <root-step>E</root-step>
        </root>
        <kind>minor</kind>
      </harmony>
      <note>
        <pitch>
          <step>G</step>
          <octave>4</octave>
        </pitch>
        <duration>2520</duration>
        <voice>1</voice>
        <type>quarter</type>
        <lyric number="1">
          <syllabic>begin</syllabic>
          <text>tae</text>
        </lyric>
        <lyric number="2">
          <syllabic>begin</syllabic>
          <text>ba</text>
        </lyric>
        <lyric number="3">
          <syllabic>begin</syllabic>
          <text>for</text>
        </lyric>
        <lyric number="4">
          <syllabic>begin</syllabic>
          <text>wis</text>
        </lyric>
      </note>
      <note>
        <pitch>
          <step>B</step>
          <octave>4</octave>
        </pitch>
        <duration>2520</duration>
        <voice>1</voice>
        <type>quarter</type>
      </note>
      <note>
        <pitch>
          <step>D</step>
          <octave>5</octave>
        </pitch>
        <duration>2520</duration>
        <voice>1</voice>
        <type>quarter</type>
        <lyric number="1">
          <syllabic>end</syllabic>
          <text>be</text>
        </lyric>
        <lyric number="2">
          <syllabic>end</syllabic>
          <text>ttle</text>
        </lyric>
        <lyric number="3">
          <syllabic>end</syllabic>
          <text>est</text>
        </lyric>
        <lyric number="4">
          <syllabic>end</syllabic>
          <text>nae</text>
        </lyric>
      </note>
    </measure>
    <measure number="25">
      <harmony>
        <root>
          <root-step>C</root-step>
        </root>
        <kind>major</kind>
      </harmony>
      <note>
        <pitch>
          <step>E</step>
          <octave>5</octave>
        </pitch>
        <duration>7560</duration>
        <voice>1</voice>
        <type>half</type>
        <dot />
        <notations>
          <slur number="1" type="start" />
        </notations>
        <lyric number="1">
          <syllabic>single</syllabic>
          <text>seen,</text>
        </lyric>
        <lyric number="2">
          <syllabic>single</syllabic>
          <text>keen,</text>
        </lyric>
        <lyric number="3">
          <syllabic>single</syllabic>
          <text>Queen,</text>
        </lyric>
        <lyric number="4">
          <syllabic>single</syllabic>
          <text>seen.</text>
        </lyric>
      </note>
    </measure>
    <measure number="26">
      <note>
        <pitch>
          <step>E</step>
          <octave>5</octave>
        </pitch>
        <duration>5040</duration>
        <voice>1</voice>
        <type>half</type>
        <notations>
          <slur number="1" type="stop" />
        </notations>
      </note>
      <note>
        <pitch>
          <step>G</step>
          <octave>5</octave>
        </pitch>
        <duration>2520</duration>
        <voice>1</voice>
        <type>quarter</type>
        <lyric number="1">
          <syllabic>single</syllabic>
          <text>but</text>
        </lyric>
        <lyric number="2">
          <syllabic>single</syllabic>
          <text>but</text>
        </lyric>
        <lyric number="3">
          <syllabic>single</syllabic>
          <text>but</text>
        </lyric>
        <lyric number="4">
          <syllabic>single</syllabic>
          <text>She's</text>
        </lyric>
      </note>
    </measure>
    <measure number="27">
      <print new-system="yes" />
      <harmony>
        <root>
          <root-step>G</root-step>
        </root>
        <kind>major</kind>
      </harmony>
      <note>
        <pitch>
          <step>D</step>
          <octave>5</octave>
        </pitch>
        <duration>5040</duration>
        <voice>1</voice>
        <type>half</type>
        <lyric number="1">
          <syllabic>single</syllabic>
          <text>aye</text>
        </lyric>
        <lyric number="2">
          <syllabic>single</syllabic>
          <text>aye</text>
        </lyric>
        <lyric number="3">
          <syllabic>single</syllabic>
          <text>aye</text>
        </lyric>
        <lyric number="4">
          <syllabic>single</syllabic>
          <text>owre</text>
        </lyric>
      </note>
      <note>
        <pitch>
          <step>B</step>
          <octave>4</octave>
        </pitch>
        <duration>2520</duration>
        <voice>1</voice>
        <type>quarter</type>
        <lyric number="1">
          <syllabic>single</syllabic>
          <text>she</text>
        </lyric>
        <lyric number="2">
          <syllabic>single</syllabic>
          <text>she</text>
        </lyric>
        <lyric number="3">
          <syllabic>single</syllabic>
          <text>she</text>
        </lyric>
        <lyric number="4">
          <syllabic>single</syllabic>
          <text>the</text>
        </lyric>
      </note>
    </measure>
    <measure number="28">
      <harmony>
        <root>
          <root-step>D</root-step>
        </root>
        <kind>major</kind>
        <bass>
          <bass-step>F</bass-step>
          <bass-alter>1</bass-alter>
        </bass>
      </harmony>
      <note>
        <pitch>
          <step>A</step>
          <octave>4</octave>
        </pitch>
        <duration>5040</duration>
        <voice>1</voice>
        <type>half</type>
        <lyric number="1">
          <syllabic>single</syllabic>
          <text>lout</text>
        </lyric>
        <lyric number="2">
          <syllabic>single</syllabic>
          <text>lout</text>
        </lyric>
        <lyric number="3">
          <syllabic>single</syllabic>
          <text>lout</text>
        </lyric>
        <lyric number="4">
          <syllabic>begin</syllabic>
          <text>bor</text>
        </lyric>
      </note>
      <note>
        <pitch>
          <step>G</step>
          <octave>4</octave>
        </pitch>
        <duration>2520</duration>
        <voice>1</voice>
        <type>quarter</type>
        <lyric number="1">
          <syllabic>single</syllabic>
          <text>the</text>
        </lyric>
        <lyric number="2">
          <syllabic>single</syllabic>
          <text>the</text>
        </lyric>
        <lyric number="3">
          <syllabic>single</syllabic>
          <text>the</text>
        </lyric>
        <lyric number="4">
          <syllabic>end</syllabic>
          <text>der</text>
        </lyric>
      </note>
    </measure>
    <measure number="29">
      <harmony>
        <root>
          <root-step>E</root-step>
        </root>
        <kind>minor</kind>
      </harmony>
      <note>
        <pitch>
          <step>G</step>
          <octave>4</octave>
        </pitch>
        <duration>2520</duration>
        <voice>1</voice>
        <type>quarter</type>
        <lyric number="1">
          <syllabic>single</syllabic>
          <text>tears</text>
        </lyric>
        <lyric number="2">
          <syllabic>single</syllabic>
          <text>tears</text>
        </lyric>
        <lyric number="3">
          <syllabic>single</syllabic>
          <text>tears</text>
        </lyric>
        <lyric number="4">
          <syllabic>single</syllabic>
          <text>an</text>
        </lyric>
      </note>
      <note>
        <pitch>
          <step>B</step>
          <octave>4</octave>
        </pitch>
        <duration>5040</duration>
        <voice>1</voice>
        <type>half</type>
        <lyric number="1">
          <syllabic>begin</syllabic>
          <text>doun</text>
        </lyric>
        <lyric number="2">
          <syllabic>begin</syllabic>
          <text>doun</text>
        </lyric>
        <lyric number="3">
          <syllabic>begin</syllabic>
          <text>doun</text>
        </lyric>
        <lyric number="4">
          <syllabic>begin</syllabic>
          <text>a</text>
        </lyric>
      </note>
    </measure>
    <measure number="30">
      <harmony>
        <root>
          <root-step>G</root-step>
        </root>
        <kind>major</kind>
        <bass>
          <bass-step>D</bass-step>
        </bass>
      </harmony>
      <note>
        <pitch>
          <step>D</step>
          <octave>4</octave>
        </pitch>
        <duration>5040</duration>
        <voice>1</voice>
        <type>half</type>
        <lyric number="1">
          <syllabic>end</syllabic>
          <text>faa</text>
        </lyric>
        <lyric number="2">
          <syllabic>end</syllabic>
          <text>faa</text>
        </lyric>
        <lyric number="3">
          <syllabic>end</syllabic>
          <text>faa</text>
        </lyric>
        <lyric number="4">
          <syllabic>end</syllabic>
          <text>wa,</text>
        </lyric>
      </note>
      <note>
        <pitch>
          <step>E</step>
          <octave>4</octave>
        </pitch>
        <duration>2520</duration>
        <voice>1</voice>
        <type>quarter</type>
        <lyric number="1">
          <syllabic>single</syllabic>
          <text>for</text>
        </lyric>
        <lyric number="2">
          <syllabic>single</syllabic>
          <text>for</text>
        </lyric>
        <lyric number="3">
          <syllabic>single</syllabic>
          <text>for</text>
        </lyric>
        <lyric number="4">
          <syllabic>single</syllabic>
          <text>wi</text>
        </lyric>
      </note>
    </measure>
    <measure number="31">
      <harmony>
        <root>
          <root-step>C</root-step>
        </root>
        <kind>major</kind>
      </harmony>
      <note>
        <pitch>
          <step>G</step>
          <octave>4</octave>
        </pitch>
        <duration>5040</duration>
        <voice>1</voice>
        <type>half</type>
        <lyric number="1">
          <syllabic>single</syllabic>
          <text>Jock</text>
        </lyric>
        <lyric number="2">
          <syllabic>single</syllabic>
          <text>Jock</text>
        </lyric>
        <lyric number="3">
          <syllabic>single</syllabic>
          <text>Jock</text>
        </lyric>
        <lyric number="4">
          <syllabic>single</syllabic>
          <text>Jock</text>
        </lyric>
      </note>
      <note>
        <pitch>
          <step>C</step>
          <octave>5</octave>
        </pitch>
        <duration>2520</duration>
        <voice>1</voice>
        <type>quarter</type>
        <lyric number="1">
          <syllabic>single</syllabic>
          <text>o</text>
        </lyric>
        <lyric number="2">
          <syllabic>single</syllabic>
          <text>o</text>
        </lyric>
        <lyric number="3">
          <syllabic>single</syllabic>
          <text>o</text>
        </lyric>
        <lyric number="4">
          <syllabic>single</syllabic>
          <text>o</text>
        </lyric>
      </note>
    </measure>
    <measure number="32">
      <harmony>
        <root>
          <root-step>D</root-step>
        </root>
        <kind>dominant</kind>
      </harmony>
      <note>
        <pitch>
          <step>A</step>
          <octave>4</octave>
        </pitch>
        <duration>5040</duration>
        <voice>1</voice>
        <type>half</type>
        <lyric number="1">
          <syllabic>begin</syllabic>
          <text>Ha</text>
        </lyric>
        <lyric number="2">
          <syllabic>begin</syllabic>
          <text>Ha</text>
        </lyric>
        <lyric number="3">
          <syllabic>begin</syllabic>
          <text>Ha</text>
        </lyric>
        <lyric number="4">
          <syllabic>begin</syllabic>
          <text>Ha</text>
        </lyric>
      </note>
      <note>
        <pitch>
          <step>G</step>
          <octave>4</octave>
        </pitch>
        <duration>2520</duration>
        <voice>1</voice>
        <type>quarter</type>
        <lyric number="1">
          <syllabic>middle</syllabic>
          <text>zel</text>
        </lyric>
        <lyric number="2">
          <syllabic>middle</syllabic>
          <text>zel</text>
        </lyric>
        <lyric number="3">
          <syllabic>middle</syllabic>
          <text>zel</text>
        </lyric>
        <lyric number="4">
          <syllabic>middle</syllabic>
          <text>zel</text>
        </lyric>
      </note>
    </measure>
    <measure number="33">
      <harmony>
        <root>
          <root-step>G</root-step>
        </root>
        <kind>major</kind>
      </harmony>
      <note>
        <pitch>
          <step>G</step>
          <octave>4</octave>
        </pitch>
        <duration>7560</duration>
        <voice>1</voice>
        <type>half</type>
        <dot />
        <notations>
          <slur number="1" type="start" />
        </notations>
        <lyric number="1">
          <syllabic>end</syllabic>
          <text>dean.</text>
        </lyric>
        <lyric number="2">
          <syllabic>end</syllabic>
          <text>dean.</text>
        </lyric>
        <lyric number="3">
          <syllabic>end</syllabic>
          <text>dean.</text>
        </lyric>
        <lyric number="4">
          <syllabic>end</syllabic>
          <text>dean.</text>
        </lyric>
      </note>
    </measure>
    <measure number="34">
      <note>
        <pitch>
          <step>G</step>
          <octave>4</octave>
        </pitch>
        <duration>5040</duration>
        <voice>1</voice>
        <type>half</type>
        <notations>
          <slur number="1" type="stop" />
        </notations>
      </note>
      <barline location="right">
        <bar-style>light-heavy</bar-style>
        <repeat direction="backward" />
      </barline>
    </measure>
  </part>
</score-partwise>