<?xml version='1.0' encoding='utf-8'?>
<!DOCTYPE score-partwise PUBLIC "-//Recordare//DTD MusicXML 3.0 Partwise//EN" "http://www.musicxml.org/dtds/partwise.dtd">
<score-partwise>
  <work>
    <work-title>Skye Boat Song, The 34186</work-title>
  </work>
  <identification>
    <encoding>
      <encoder>abc2xml version 233</encoder>
      <supports attribute="new-system" element="print" type="yes" value="yes" />
      <encoding-date>2022-12-08</encoding-date>
    </encoding>
    <source>thesession.org</source>
    <miscellaneous>
      <miscellaneous-field name="notes">tune id: 3690; setting id: 34186</miscellaneous-field>
      <miscellaneous-field name="rhythm">waltz</miscellaneous-field>
      <miscellaneous-field name="lyrics">1. Mull was astern, Rùm on the port,
Eigg on the starboard bow;
Glory of youth glowed in her soul;
Where is that glory now?

2.Give me again all that was there,
Give me the sun that shone
Give me the eyes, give me the soul,
Give me the lass that's gone

3. Billow and breeze, islands and seas,
Mountains of rain and sun,
All that was good, all that was fair,
All that was me is gone.</miscellaneous-field>
      <miscellaneous-field name="transcription">triplewhiskey</miscellaneous-field>
    </miscellaneous>
  </identification>
  <part-list>
    <score-part id="P1">
      <part-name />
    </score-part>
  </part-list>
  <part id="P1">
    <measure number="1">
      <attributes>
        <divisions>2520</divisions>
        <key>
          <fifths>0</fifths>
          <mode>major</mode>
        </key>
        <time>
          <beats>3</beats>
          <beat-type>4</beat-type>
        </time>
      </attributes>
      <direction placement="above">
        <direction-type>
          <rehearsal font-weight="bold">Chorus</rehearsal>
        </direction-type>
      </direction>
      <harmony>
        <root>
          <root-step>C</root-step>
        </root>
        <kind>major</kind>
      </harmony>
      <note>
        <pitch>
          <step>G</step>
          <octave>4</octave>
        </pitch>
        <duration>3780</duration>
        <voice>1</voice>
        <type>quarter</type>
        <dot />
        <lyric number="1">
          <syllabic>single</syllabic>
          <text>Sing</text>
        </lyric>
      </note>
      <note>
        <pitch>
          <step>A</step>
          <octave>4</octave>
        </pitch>
        <duration>1260</duration>
        <voice>1</voice>
        <type>eighth</type>
        <lyric number="1">
          <syllabic>single</syllabic>
          <text>me</text>
        </lyric>
      </note>
      <note>
        <pitch>
          <step>G</step>
          <octave>4</octave>
        </pitch>
        <duration>2520</duration>
        <voice>1</voice>
        <type>quarter</type>
        <lyric number="1">
          <syllabic>single</syllabic>
          <text>a</text>
        </lyric>
      </note>
    </measure>
    <measure number="2">
      <harmony>
        <root>
          <root-step>A</root-step>
        </root>
        <kind>minor</kind>
      </harmony>
      <note>
        <pitch>
          <step>C</step>
          <octave>5</octave>
        </pitch>
        <duration>5040</duration>
        <voice>1</voice>
        <type>half</type>
        <lyric number="1">
          <syllabic>single</syllabic>
          <text>song</text>
        </lyric>
      </note>
      <note>
        <pitch>
          <step>C</step>
          <octave>5</octave>
        </pitch>
        <duration>2520</duration>
        <voice>1</voice>
        <type>quarter</type>
        <lyric number="1">
          <syllabic>single</syllabic>
          <text>of a</text>
        </lyric>
      </note>
    </measure>
    <measure number="3">
      <harmony>
        <root>
          <root-step>D</root-step>
        </root>
        <kind>minor</kind>
      </harmony>
      <note>
        <pitch>
          <step>D</step>
          <octave>5</octave>
        </pitch>
        <duration>3780</duration>
        <voice>1</voice>
        <type>quarter</type>
        <dot />
        <lyric number="1">
          <syllabic>single</syllabic>
          <text>lass</text>
        </lyric>
      </note>
      <note>
        <pitch>
          <step>E</step>
          <octave>5</octave>
        </pitch>
        <duration>1260</duration>
        <voice>1</voice>
        <type>eighth</type>
        <lyric number="1">
          <syllabic>single</syllabic>
          <text>that</text>
        </lyric>
      </note>
      <note>
        <pitch>
          <step>D</step>
          <octave>5</octave>
        </pitch>
        <duration>2520</duration>
        <voice>1</voice>
        <type>quarter</type>
        <lyric number="1">
          <syllabic>single</syllabic>
          <text>is</text>
        </lyric>
      </note>
    </measure>
    <measure number="4">
      <harmony>
        <root>
          <root-step>G</root-step>
        </root>
        <kind>major</kind>
      </harmony>
      <note>
        <pitch>
          <step>G</step>
          <octave>5</octave>
        </pitch>
        <duration>7560</duration>
        <voice>1</voice>
        <type>half</type>
        <dot />
        <lyric number="1">
          <syllabic>single</syllabic>
          <text>gone,</text>
        </lyric>
      </note>
    </measure>
    <measure number="5">
      <harmony>
        <root>
          <root-step>C</root-step>
        </root>
        <kind>major</kind>
      </harmony>
      <note>
        <pitch>
          <step>E</step>
          <octave>5</octave>
        </pitch>
        <duration>3780</duration>
        <voice>1</voice>
        <type>quarter</type>
        <dot />
        <lyric number="1">
          <syllabic>single</syllabic>
          <text>say</text>
        </lyric>
      </note>
      <note>
        <pitch>
          <step>D</step>
          <octave>5</octave>
        </pitch>
        <duration>1260</duration>
        <voice>1</voice>
        <type>eighth</type>
        <lyric number="1">
          <syllabic>single</syllabic>
          <text>could</text>
        </lyric>
      </note>
      <note>
        <pitch>
          <step>E</step>
          <octave>5</octave>
        </pitch>
        <duration>2520</duration>
        <voice>1</voice>
        <type>quarter</type>
        <lyric number="1">
          <syllabic>single</syllabic>
          <text>that</text>
        </lyric>
      </note>
    </measure>
    <measure number="6">
      <harmony>
        <root>
          <root-step>A</root-step>
        </root>
        <kind>minor</kind>
      </harmony>
      <note>
        <pitch>
          <step>A</step>
          <octave>4</octave>
        </pitch>
        <duration>5040</duration>
        <voice>1</voice>
        <type>half</type>
        <lyric number="1">
          <syllabic>single</syllabic>
          <text>lass</text>
        </lyric>
      </note>
      <note>
        <pitch>
          <step>A</step>
          <octave>4</octave>
        </pitch>
        <duration>2520</duration>
        <voice>1</voice>
        <type>quarter</type>
        <lyric number="1">
          <syllabic>single</syllabic>
          <text>be</text>
        </lyric>
      </note>
    </measure>
    <measure number="7">
      <harmony>
        <root>
          <root-step>G</root-step>
        </root>
        <kind>major</kind>
      </harmony>
      <note>
        <pitch>
          <step>G</step>
          <octave>4</octave>
        </pitch>
        <duration>7560</duration>
        <voice>1</voice>
        <type>half</type>
        <dot />
        <lyric number="1">
          <syllabic>single</syllabic>
          <text>I?</text>
          <extend type="start" />
        </lyric>
      </note>
    </measure>
    <measure number="8">
      <note>
        <pitch>
          <step>G</step>
          <octave>4</octave>
        </pitch>
        <duration>7560</duration>
        <voice>1</voice>
        <type>half</type>
        <dot />
        <lyric number="1">
          <extend type="stop" />
        </lyric>
      </note>
    </measure>
    <measure number="9">
      <print new-system="yes" />
      <harmony>
        <root>
          <root-step>C</root-step>
        </root>
        <kind>major</kind>
      </harmony>
      <note>
        <pitch>
          <step>G</step>
          <octave>4</octave>
        </pitch>
        <duration>3780</duration>
        <voice>1</voice>
        <type>quarter</type>
        <dot />
        <lyric number="1">
          <syllabic>single</syllabic>
          <text>Merry</text>
        </lyric>
      </note>
      <note>
        <pitch>
          <step>A</step>
          <octave>4</octave>
        </pitch>
        <duration>1260</duration>
        <voice>1</voice>
        <type>eighth</type>
        <lyric number="1">
          <syllabic>single</syllabic>
          <text>of</text>
        </lyric>
      </note>
      <note>
        <pitch>
          <step>G</step>
          <octave>4</octave>
        </pitch>
        <duration>2520</duration>
        <voice>1</voice>
        <type>quarter</type>
        <lyric number="1">
          <syllabic>single</syllabic>
          <text>soul,</text>
        </lyric>
      </note>
    </measure>
    <measure number="10">
      <harmony>
        <root>
          <root-step>A</root-step>
        </root>
        <kind>minor</kind>
      </harmony>
      <note>
        <pitch>
          <step>C</step>
          <octave>5</octave>
        </pitch>
        <duration>5040</duration>
        <voice>1</voice>
        <type>half</type>
        <lyric number="1">
          <syllabic>single</syllabic>
          <text>she</text>
        </lyric>
      </note>
      <note>
        <pitch>
          <step>C</step>
          <octave>5</octave>
        </pitch>
        <duration>2520</duration>
        <voice>1</voice>
        <type>quarter</type>
        <lyric number="1">
          <syllabic>single</syllabic>
          <text>sailed</text>
        </lyric>
      </note>
    </measure>
    <measure number="11">
      <harmony>
        <root>
          <root-step>D</root-step>
        </root>
        <kind>minor</kind>
      </harmony>
      <note>
        <pitch>
          <step>D</step>
          <octave>5</octave>
        </pitch>
        <duration>3780</duration>
        <voice>1</voice>
        <type>quarter</type>
        <dot />
        <lyric number="1">
          <syllabic>single</syllabic>
          <text>on</text>
        </lyric>
      </note>
      <note>
        <pitch>
          <step>E</step>
          <octave>5</octave>
        </pitch>
        <duration>1260</duration>
        <voice>1</voice>
        <type>eighth</type>
        <lyric number="1">
          <syllabic>single</syllabic>
          <text>a</text>
        </lyric>
      </note>
      <note>
        <pitch>
          <step>D</step>
          <octave>5</octave>
        </pitch>
        <duration>2520</duration>
        <voice>1</voice>
        <type>quarter</type>
        <lyric number="1">
          <syllabic>single</syllabic>
          <text>day</text>
        </lyric>
      </note>
    </measure>
    <measure number="12">
      <harmony>
        <root>
          <root-step>G</root-step>
        </root>
        <kind>major</kind>
      </harmony>
      <note>
        <pitch>
          <step>G</step>
          <octave>5</octave>
        </pitch>
        <duration>7560</duration>
        <voice>1</voice>
        <type>half</type>
        <dot />
        <lyric number="1">
          <syllabic>single</syllabic>
          <text>over</text>
        </lyric>
      </note>
    </measure>
    <measure number="13">
      <harmony>
        <root>
          <root-step>C</root-step>
        </root>
        <kind>major</kind>
      </harmony>
      <note>
        <pitch>
          <step>E</step>
          <octave>5</octave>
        </pitch>
        <duration>3780</duration>
        <voice>1</voice>
        <type>quarter</type>
        <dot />
        <lyric number="1">
          <syllabic>single</syllabic>
          <text>the</text>
        </lyric>
      </note>
      <note>
        <pitch>
          <step>D</step>
          <octave>5</octave>
        </pitch>
        <duration>1260</duration>
        <voice>1</voice>
        <type>eighth</type>
        <lyric number="1">
          <syllabic>single</syllabic>
          <text>sea</text>
        </lyric>
      </note>
      <note>
        <pitch>
          <step>E</step>
          <octave>5</octave>
        </pitch>
        <duration>2520</duration>
        <voice>1</voice>
        <type>quarter</type>
        <lyric number="1">
          <syllabic>single</syllabic>
          <text>to</text>
        </lyric>
      </note>
    </measure>
    <measure number="14">
      <harmony>
        <root>
          <root-step>F</root-step>
        </root>
        <kind>major</kind>
      </harmony>
      <note>
        <pitch>
          <step>A</step>
          <octave>4</octave>
        </pitch>
        <duration>5040</duration>
        <voice>1</voice>
        <type>half</type>
        <lyric number="1">
          <syllabic>single</syllabic>
          <text>Skye.</text>
          <extend type="start" />
        </lyric>
      </note>
      <note>
        <pitch>
          <step>B</step>
          <octave>4</octave>
        </pitch>
        <duration>2520</duration>
        <voice>1</voice>
        <type>quarter</type>
        <lyric number="1">
          <extend type="stop" />
        </lyric>
      </note>
    </measure>
    <measure number="15">
      <harmony>
        <root>
          <root-step>C</root-step>
        </root>
        <kind>major</kind>
      </harmony>
      <note>
        <pitch>
          <step>C</step>
          <octave>5</octave>
        </pitch>
        <duration>7560</duration>
        <voice>1</voice>
        <type>half</type>
        <dot />
        <notations>
          <slur number="1" type="start" />
        </notations>
      </note>
    </measure>
    <measure number="16">
      <note>
        <pitch>
          <step>C</step>
          <octave>5</octave>
        </pitch>
        <duration>7560</duration>
        <voice>1</voice>
        <type>half</type>
        <dot />
        <notations>
          <slur number="1" type="stop" />
        </notations>
      </note>
      <barline location="right">
        <bar-style>light-light</bar-style>
      </barline>
    </measure>
    <measure number="17">
      <print new-system="yes" />
      <direction placement="above">
        <direction-type>
          <rehearsal font-weight="bold">Verse</rehearsal>
        </direction-type>
      </direction>
      <harmony>
        <root>
          <root-step>A</root-step>
        </root>
        <kind>minor</kind>
      </harmony>
      <note>
        <pitch>
          <step>E</step>
          <octave>5</octave>
        </pitch>
        <duration>3780</duration>
        <voice>1</voice>
        <type>quarter</type>
        <dot />
        <lyric number="1">
          <syllabic>single</syllabic>
          <text>Billow</text>
        </lyric>
      </note>
      <note>
        <pitch>
          <step>C</step>
          <octave>5</octave>
        </pitch>
        <duration>1260</duration>
        <voice>1</voice>
        <type>eighth</type>
        <lyric number="1">
          <syllabic>single</syllabic>
          <text>and</text>
        </lyric>
      </note>
      <note>
        <pitch>
          <step>E</step>
          <octave>5</octave>
        </pitch>
        <duration>2520</duration>
        <voice>1</voice>
        <type>quarter</type>
        <lyric number="1">
          <syllabic>single</syllabic>
          <text>breeze,</text>
        </lyric>
      </note>
    </measure>
    <measure number="18">
      <note>
        <pitch>
          <step>E</step>
          <octave>5</octave>
        </pitch>
        <duration>7560</duration>
        <voice>1</voice>
        <type>half</type>
        <dot />
        <lyric number="1">
          <syllabic>single</syllabic>
          <text>islands</text>
        </lyric>
      </note>
    </measure>
    <measure number="19">
      <harmony>
        <root>
          <root-step>D</root-step>
        </root>
        <kind>minor</kind>
      </harmony>
      <note>
        <pitch>
          <step>D</step>
          <octave>5</octave>
        </pitch>
        <duration>3780</duration>
        <voice>1</voice>
        <type>quarter</type>
        <dot />
        <lyric number="1">
          <syllabic>single</syllabic>
          <text>and</text>
        </lyric>
      </note>
      <note>
        <pitch>
          <step>A</step>
          <octave>4</octave>
        </pitch>
        <duration>1260</duration>
        <voice>1</voice>
        <type>eighth</type>
        <lyric number="1">
          <syllabic>single</syllabic>
          <text>seas,</text>
        </lyric>
      </note>
      <note>
        <pitch>
          <step>D</step>
          <octave>5</octave>
        </pitch>
        <duration>2520</duration>
        <voice>1</voice>
        <type>quarter</type>
        <lyric number="1">
          <syllabic>single</syllabic>
          <text>mountains</text>
        </lyric>
      </note>
    </measure>
    <measure number="20">
      <note>
        <pitch>
          <step>D</step>
          <octave>5</octave>
        </pitch>
        <duration>7560</duration>
        <voice>1</voice>
        <type>half</type>
        <dot />
        <lyric number="1">
          <syllabic>single</syllabic>
          <text>of</text>
        </lyric>
      </note>
    </measure>
    <measure number="21">
      <harmony>
        <root>
          <root-step>A</root-step>
        </root>
        <kind>minor</kind>
      </harmony>
      <note>
        <pitch>
          <step>C</step>
          <octave>5</octave>
        </pitch>
        <duration>3780</duration>
        <voice>1</voice>
        <type>quarter</type>
        <dot />
        <lyric number="1">
          <syllabic>single</syllabic>
          <text>rain</text>
        </lyric>
      </note>
      <note>
        <pitch>
          <step>A</step>
          <octave>4</octave>
        </pitch>
        <duration>1260</duration>
        <voice>1</voice>
        <type>eighth</type>
        <lyric number="1">
          <syllabic>single</syllabic>
          <text>and</text>
        </lyric>
      </note>
      <note>
        <pitch>
          <step>C</step>
          <octave>5</octave>
        </pitch>
        <duration>2520</duration>
        <voice>1</voice>
        <type>quarter</type>
        <lyric number="1">
          <syllabic>single</syllabic>
          <text>sun</text>
          <extend type="start" />
        </lyric>
      </note>
    </measure>
    <measure number="22">
      <harmony>
        <root>
          <root-step>F</root-step>
        </root>
        <kind>major</kind>
      </harmony>
      <note>
        <pitch>
          <step>C</step>
          <octave>5</octave>
        </pitch>
        <duration>5040</duration>
        <voice>1</voice>
        <type>half</type>
        <lyric number="1">
          <extend type="stop" />
        </lyric>
      </note>
      <note>
        <pitch>
          <step>C</step>
          <octave>5</octave>
        </pitch>
        <duration>2520</duration>
        <voice>1</voice>
        <type>quarter</type>
      </note>
    </measure>
    <measure number="23">
      <harmony>
        <root>
          <root-step>A</root-step>
        </root>
        <kind>minor</kind>
      </harmony>
      <note>
        <pitch>
          <step>A</step>
          <octave>4</octave>
        </pitch>
        <duration>7560</duration>
        <voice>1</voice>
        <type>half</type>
        <dot />
      </note>
    </measure>
    <measure number="24">
      <note>
        <pitch>
          <step>A</step>
          <octave>4</octave>
        </pitch>
        <duration>7560</duration>
        <voice>1</voice>
        <type>half</type>
        <dot />
      </note>
    </measure>
    <measure number="25">
      <print new-system="yes" />
      <harmony>
        <root>
          <root-step>A</root-step>
        </root>
        <kind>minor</kind>
      </harmony>
      <note>
        <pitch>
          <step>E</step>
          <octave>5</octave>
        </pitch>
        <duration>3780</duration>
        <voice>1</voice>
        <type>quarter</type>
        <dot />
        <lyric number="1">
          <syllabic>single</syllabic>
          <text>All</text>
        </lyric>
      </note>
      <note>
        <pitch>
          <step>C</step>
          <octave>5</octave>
        </pitch>
        <duration>1260</duration>
        <voice>1</voice>
        <type>eighth</type>
        <lyric number="1">
          <syllabic>single</syllabic>
          <text>that</text>
        </lyric>
      </note>
      <note>
        <pitch>
          <step>E</step>
          <octave>5</octave>
        </pitch>
        <duration>2520</duration>
        <voice>1</voice>
        <type>quarter</type>
        <lyric number="1">
          <syllabic>single</syllabic>
          <text>was</text>
        </lyric>
      </note>
    </measure>
    <measure number="26">
      <note>
        <pitch>
          <step>E</step>
          <octave>5</octave>
        </pitch>
        <duration>7560</duration>
        <voice>1</voice>
        <type>half</type>
        <dot />
        <lyric number="1">
          <syllabic>single</syllabic>
          <text>good,</text>
        </lyric>
      </note>
    </measure>
    <measure number="27">
      <harmony>
        <root>
          <root-step>D</root-step>
        </root>
        <kind>minor</kind>
      </harmony>
      <note>
        <pitch>
          <step>D</step>
          <octave>5</octave>
        </pitch>
        <duration>3780</duration>
        <voice>1</voice>
        <type>quarter</type>
        <dot />
        <lyric number="1">
          <syllabic>single</syllabic>
          <text>all</text>
        </lyric>
      </note>
      <note>
        <pitch>
          <step>A</step>
          <octave>4</octave>
        </pitch>
        <duration>1260</duration>
        <voice>1</voice>
        <type>eighth</type>
        <lyric number="1">
          <syllabic>single</syllabic>
          <text>that</text>
        </lyric>
      </note>
      <note>
        <pitch>
          <step>D</step>
          <octave>5</octave>
        </pitch>
        <duration>2520</duration>
        <voice>1</voice>
        <type>quarter</type>
        <lyric number="1">
          <syllabic>single</syllabic>
          <text>was</text>
        </lyric>
      </note>
    </measure>
    <measure number="28">
      <note>
        <pitch>
          <step>D</step>
          <octave>5</octave>
        </pitch>
        <duration>7560</duration>
        <voice>1</voice>
        <type>half</type>
        <dot />
        <lyric number="1">
          <syllabic>single</syllabic>
          <text>fair,</text>
        </lyric>
      </note>
    </measure>
    <measure number="29">
      <harmony>
        <root>
          <root-step>A</root-step>
        </root>
        <kind>minor</kind>
      </harmony>
      <note>
        <pitch>
          <step>C</step>
          <octave>5</octave>
        </pitch>
        <duration>3780</duration>
        <voice>1</voice>
        <type>quarter</type>
        <dot />
        <lyric number="1">
          <syllabic>single</syllabic>
          <text>all</text>
        </lyric>
      </note>
      <note>
        <pitch>
          <step>A</step>
          <octave>4</octave>
        </pitch>
        <duration>1260</duration>
        <voice>1</voice>
        <type>eighth</type>
        <lyric number="1">
          <syllabic>single</syllabic>
          <text>that</text>
        </lyric>
      </note>
      <note>
        <pitch>
          <step>C</step>
          <octave>5</octave>
        </pitch>
        <duration>2520</duration>
        <voice>1</voice>
        <type>quarter</type>
        <lyric number="1">
          <syllabic>single</syllabic>
          <text>was</text>
        </lyric>
      </note>
    </measure>
    <measure number="30">
      <harmony>
        <root>
          <root-step>F</root-step>
        </root>
        <kind>major</kind>
      </harmony>
      <note>
        <pitch>
          <step>C</step>
          <octave>5</octave>
        </pitch>
        <duration>5040</duration>
        <voice>1</voice>
        <type>half</type>
        <lyric number="1">
          <syllabic>single</syllabic>
          <text>me</text>
        </lyric>
      </note>
      <note>
        <pitch>
          <step>C</step>
          <octave>5</octave>
        </pitch>
        <duration>2520</duration>
        <voice>1</voice>
        <type>quarter</type>
        <lyric number="1">
          <syllabic>single</syllabic>
          <text>is</text>
        </lyric>
      </note>
    </measure>
    <measure number="31">
      <harmony>
        <root>
          <root-step>G</root-step>
        </root>
        <kind>major</kind>
      </harmony>
      <note>
        <pitch>
          <step>A</step>
          <octave>4</octave>
        </pitch>
        <duration>7560</duration>
        <voice>1</voice>
        <type>half</type>
        <dot />
        <lyric number="1">
          <syllabic>single</syllabic>
          <text>gone</text>
          <extend type="start" />
        </lyric>
      </note>
    </measure>
    <measure number="32">
      <note>
        <pitch>
          <step>G</step>
          <octave>4</octave>
        </pitch>
        <duration>7560</duration>
        <voice>1</voice>
        <type>half</type>
        <dot />
        <lyric number="1">
          <extend type="stop" />
        </lyric>
      </note>
      <barline location="right">
        <bar-style>light-light</bar-style>
      </barline>
    </measure>
  </part>
</score-partwise>